HIERARCHY
ROOT Hips
{
  OFFSET 39.0898 99.1502 -116.129
  CHANNELS 6 Xposition Yposition Zposition Zrotation Xrotation Yrotation
  JOINT RightUpLeg
  {
    OFFSET -8.9458 -8.66707 0.101652
    CHANNELS 3 Zrotation Xrotation Yrotation
    JOINT RightLeg
    {
      OFFSET 0 -44.4227 1.3727
      CHANNELS 3 Zrotation Xrotation Yrotation
      JOINT RightFoot
      {
        OFFSET 0.253549 -42.0924 -1.46059
        CHANNELS 3 Zrotation Xrotation Yrotation
        JOINT RightToes
        {
          OFFSET 0.04 -4.41509 8.4991
          CHANNELS 3 Zrotation Xrotation Yrotation
          End Site
          {
            OFFSET -0.08 -0.137448 9.77979
          }
        }
      }
    }
  }
  JOINT Spine
  {
    OFFSET 0 11.8905 0
    CHANNELS 3 Zrotation Xrotation Yrotation
    JOINT Spine1
    {
      OFFSET 0 25.6574 0.127663
      CHANNELS 3 Zrotation Xrotation Yrotation
      JOINT HEad
      {
        OFFSET 0 8.73416 0.011341
        CHANNELS 3 Zrotation Xrotation Yrotation
        End Site
        {
          OFFSET -0.29 12.7742 2.51395
        }
      }
      JOINT LeftShoulder1
      {
        OFFSET 8.99 -0.362252 -0.22
        CHANNELS 3 Zrotation Xrotation Yrotation
        JOINT LeftArm
        {
          OFFSET 10.2827 -0.00338 0.322123
          CHANNELS 3 Zrotation Xrotation Yrotation
          JOINT LeftForeArm
          {
            OFFSET 32.7669 0.099144 -1.42434
            CHANNELS 3 Zrotation Xrotation Yrotation
            JOINT LeftHand
            {
              OFFSET 27.5643 0.085362 1.02216
              CHANNELS 3 Zrotation Xrotation Yrotation
              End Site
              {
                OFFSET 16.7443 -0.6 1.50291
              }
            }
          }
        }
      }
      JOINT RightShoulder
      {
        OFFSET -8.99 -0.362252 -0.22
        CHANNELS 3 Zrotation Xrotation Yrotation
        JOINT RightArm
        {
          OFFSET -10.2827 -0.00338 0.322123
          CHANNELS 3 Zrotation Xrotation Yrotation
          JOINT RightForeArm
          {
            OFFSET -32.8971 0.099144 -1.42434
            CHANNELS 3 Zrotation Xrotation Yrotation
            JOINT RightHand
            {
              OFFSET -27.4921 0.085362 1.02216
              CHANNELS 3 Zrotation Xrotation Yrotation
              End Site
              {
                OFFSET -16.6312 -0.6 1.50291
              }
            }
          }
        }
      }
    }
  }
  JOINT LeftUpLeg
  {
    OFFSET 8.9458 -8.66707 0.101652
    CHANNELS 3 Zrotation Xrotation Yrotation
    JOINT LeftLeg
    {
      OFFSET 0 -44.4227 1.3727
      CHANNELS 3 Zrotation Xrotation Yrotation
      JOINT LeftFoot
      {
        OFFSET -0.253549 -42.0924 -1.46059
        CHANNELS 3 Zrotation Xrotation Yrotation
        JOINT LeftToes
        {
          OFFSET -0.04 -4.41509 8.4991
          CHANNELS 3 Zrotation Xrotation Yrotation
          End Site
          {
            OFFSET 0.08 -0.047448 9.77979
          }
        }
      }
    }
  }
}
MOTION
Frames:	12
Frame Time:	0.0166667
30.4325 92.9922 -131.667 3.40226 -15.2963 -32.1849 -30.3581 -10.2772 7.06874 33.8728 54.7581 -54.8538 8.89213 -33.5795 -2.48522 0.0462048 0.000533403 0.662642 0.493789 5.92339 5.08169 2.70379 11.8402 9.82843 -5.04249 -3.48123 10.1664 2.68359e-015 5.96354e-016 -3.18055e-015 -76.426 -56.3812 -19.4865 -44.2519 55.8244 -80.856 9.08184 16.1385 -45.3368 20.4293 5.47368 21.5577 78.311 -23.953 36.9121 -26.7512 27.6389 158.307 11.6715 12.2472 -68.9695 9.44101 -15.1056 3.41077 -0.0989787 13.5265 -26.1478 -15.5908 6.31959 -4.52032 -1.34724e-009 1.55915e-007 -4.87205e-009 
29.9417 92.2528 -132.419 2.49619 -16.0203 -33.379 -31.3271 -10.3017 7.4421 33.6025 54.6398 -53.3701 7.46159 -31.7244 -2.84009 0.0462048 0.000533403 0.662642 0.849361 6.44327 5.07517 3.20742 12.9223 9.77346 -5.72301 -3.50092 10.8321 -1.19271e-015 6.95746e-016 -0 -73.0268 -54.9106 -15.322 -42.9876 55.1802 -81.9639 7.73086 16.7389 -45.3735 20.6314 5.44347 21.2444 77.775 -20.8925 35.4383 -27.2764 22.0328 158.294 15.7644 9.30263 -70.663 10.6957 -14.9976 3.29196 -0.545493 15.1931 -25.0284 -15.0787 7.01911 -4.49727 -1.34724e-009 1.55915e-007 -4.87205e-009 
29.3787 91.5403 -133.268 1.49324 -16.6715 -34.8104 -32.0278 -10.6788 7.01281 33.1054 54.7695 -51.2058 5.23827 -28.4977 -3.43197 0.0462048 0.000533403 0.662642 1.27178 6.94787 5.02181 3.70168 13.975 9.64886 -6.50808 -3.32738 11.5213 5.46658e-016 1.98785e-016 6.36111e-015 -70.0499 -53.801 -11.186 -42.1105 54.7885 -82.5337 7.47763 16.8703 -45.1012 20.8585 5.4233 20.9558 77.528 -18.6848 34.4572 -27.862 17.4818 158.215 19.2897 6.6344 -71.8494 12.1158 -14.4934 3.09 -1.0188 16.2346 -23.8001 -14.7549 7.723 -4.45684 -1.34724e-009 1.55915e-007 -4.87205e-009 
28.7044 90.8628 -134.254 0.476416 -17.1723 -36.339 -32.3932 -11.3835 5.72546 32.2651 55.2028 -48.4675 2.56713 -23.894 -4.04597 0.0462048 0.000533403 0.662642 1.7433 7.40856 4.89805 4.17039 14.9309 9.41759 -7.33613 -2.99661 12.2478 2.08724e-015 1.98785e-016 -0 -67.339 -53.2645 -6.84467 -41.4071 54.6332 -82.747 8.45911 16.4735 -44.6144 21.1075 5.40429 20.6577 77.507 -17.4889 33.9165 -28.3742 14.5376 158.122 21.8439 4.62838 -72.5952 13.6302 -13.7212 2.78625 -1.42643 16.6594 -22.6453 -14.5507 8.3381 -4.39732 -1.34724e-009 1.55915e-007 -4.87206e-009 
27.8794 90.2205 -135.407 -0.438304 -17.4838 -37.7927 -32.4655 -12.2897 3.76786 31.195 55.8243 -45.5969 -0.0515323 -18.2771 -4.46226 0.0462048 0.000533403 0.662642 2.16488 7.80063 4.70855 4.5798 15.7349 9.06308 -8.11135 -2.60001 12.9914 1.59028e-015 3.97569e-016 3.18055e-015 -64.6853 -53.3805 -2.13265 -40.8564 54.6435 -82.6301 10.4094 15.6779 -43.9673 21.3651 5.37709 20.3238 77.6779 -17.3648 33.7626 -28.6383 13.6289 158.077 23.0751 3.61275 -73.013 15.1148 -12.8183 2.37286 -1.63871 16.4808 -21.7125 -14.405 8.81794 -4.30878 -1.34724e-009 1.55915e-007 -4.87205e-009 
26.8794 89.6233 -136.732 -1.13281 -17.6038 -38.9951 -32.3669 -13.2307 1.50142 30.2583 56.4266 -43.2846 -2.24096 -12.3352 -4.60022 0.0462048 0.000533403 0.662642 2.41681 8.10487 4.47704 4.89283 16.3501 8.59524 -8.71932 -2.26323 13.6979 3.77691e-015 -1.39149e-015 -0 -61.8564 -54.0728 3.00837 -40.6889 54.7232 -82.0313 12.7204 14.7574 -43.224 21.6069 5.33548 19.9502 78.0157 -18.2194 33.9282 -28.5041 14.8601 158.099 22.8196 3.75625 -73.1479 16.424 -11.8887 1.85681 -1.53248 15.6756 -21.0665 -14.2875 9.17641 -4.17449 -1.34724e-009 1.55915e-007 -4.87205e-009 
25.7095 89.1176 -138.195 -1.54233 -17.5169 -39.8001 -32.1716 -14.0507 -0.708077 29.829 56.7769 -42.1188 -3.91706 -6.77897 -4.52552 0.0462048 0.000533403 0.662642 2.52447 8.3117 4.21553 5.09441 16.7613 8.04967 -9.05856 -2.1148 14.2959 2.73329e-015 1.19271e-015 3.18055e-015 -58.695 -55.1035 8.47493 -41.2441 54.7616 -80.766 14.6444 14.0168 -42.5626 21.8009 5.27782 19.5564 78.4812 -19.8061 34.3243 -27.9066 17.913 158.139 21.1894 5.0052 -72.9104 17.4668 -10.964 1.26342 -1.04378 14.119 -20.6607 -14.2142 9.5114 -3.97053 -1.34724e-009 1.55915e-007 -4.87204e-009 
24.3949 88.7485 -139.746 -1.64996 -17.2206 -40.1276 -31.8924 -14.6753 -2.62676 30.0794 56.7562 -42.3068 -5.21 -2.12445 -4.34344 0.0462048 0.000533403 0.662642 2.5408 8.42394 3.94319 5.191 16.9775 7.48287 -9.07956 -2.25069 14.723 4.37326e-015 -2.98177e-016 -3.18055e-015 -55.2776 -56.1301 13.9215 -42.6852 54.6408 -78.8586 15.582 13.663 -42.24 21.9143 5.2065 19.1763 79.008 -21.7811 34.84 -26.8738 22.1061 158.108 18.558 7.06627 -72.1516 18.2143 -10.0393 0.633072 -0.210652 11.7243 -20.3327 -14.2358 9.93075 -3.68 -1.34724e-009 1.55915e-007 -4.87204e-009 
22.9736 88.5535 -141.319 -1.48371 -16.7328 -39.9819 -31.4886 -15.0944 -4.16684 30.8798 56.3386 -43.6115 -6.30603 1.37174 -4.12774 0.0462048 0.000533403 0.662642 2.50848 8.45348 3.68948 5.19526 17.0266 6.96413 -8.81332 -2.70498 14.9494 1.44119e-015 6.4605e-016 6.36111e-015 -51.9898 -56.8498 18.7534 -44.8066 54.2892 -76.6816 15.3068 13.7555 -42.4085 21.9228 5.12603 18.8434 79.5107 -23.7831 35.3517 -25.5143 26.5829 157.971 15.4611 9.4681 -70.84 18.6922 -9.07998 0.0207117 0.81981 8.50242 -19.8547 -14.4103 10.5144 -3.30119 -1.34724e-009 1.55915e-007 -4.87205e-009 
21.4866 88.5653 -142.85 -1.10861 -16.0871 -39.4406 -30.8864 -15.3288 -5.33078 31.8968 55.5532 -45.5235 -7.3336 3.6399 -3.91606 0.0462048 0.000533403 0.662642 2.45493 8.4172 3.48744 5.12487 16.9452 6.56318 -8.37195 -3.43398 14.9878 1.09332e-015 -3.47873e-016 -3.18055e-015 -49.3652 -57.139 22.3159 -47.0812 53.758 -74.8452 14.0034 14.2326 -42.9965 21.82 5.04205 18.5818 79.9065 -25.4999 35.7423 -24.0123 30.5341 157.783 12.4651 11.7142 -69.1788 18.9705 -8.04996 -0.510654 1.81418 4.61649 -19.0148 -14.7561 11.2837 -2.84954 -1.34724e-009 1.55915e-007 -4.87205e-009 
19.9713 88.8116 -144.279 -0.602673 -15.3306 -38.6247 -30.015 -15.405 -6.15444 32.763 54.4637 -47.4879 -8.32057 4.7024 -3.73113 0.0462048 0.000533403 0.662642 2.38319 8.33233 3.36571 4.99071 16.7671 6.33606 -7.91772 -4.31697 14.8854 5.46658e-015 1.78906e-015 -0 -47.7878 -57.071 24.1836 -48.8408 53.244 -73.9868 12.1657 14.9339 -43.7648 21.6223 4.96141 18.4045 80.139 -26.7008 35.9273 -22.6105 33.3663 157.68 10.0516 13.442 -67.5561 19.1286 -6.98105 -0.901471 2.50439 0.473728 -17.7094 -15.2017 12.1542 -2.35795 -1.34724e-009 1.55915e-007 -4.87204e-009 
18.4556 89.3071 -145.562 -0.0290422 -14.5211 -37.6613 -28.8446 -15.3456 -6.67963 33.2119 53.16 -49.0683 -9.19703 4.60918 -3.59575 0.0462048 0.000533403 0.662642 2.26561 8.21199 3.34189 4.79115 16.5148 6.31242 -7.60935 -5.17881 14.701 -1.98785e-015 3.97569e-016 -0 -47.338 -56.8255 24.2915 -49.4217 53.0079 -74.6269 10.4559 15.6104 -44.4458 21.3688 4.89221 18.3148 80.1899 -27.2542 35.8771 -21.5385 34.7925 157.78 8.51799 14.4968 -66.3584 19.1721 -7.83357 -1.1425 2.65214 0.468612 -16.1946 -14.9816 11.1139 -2.22778 -1.34724e-009 1.55915e-007 -4.87205e-009 
